# xmcd CD database file
#
# Track frame offsets:
#	150
#	14658
#	29698
#	43975
#	57008
#	71350
#	85000
#	98448
#	112263
#	125305
#	140295
#	154580
#	168440
#	182863
#
# Disc length: 2638 seconds
#
# Revision: 2
# Processed by: cddbd v1.5.1PL0 Copyright (c) Steve Scherf et al.
# Submitted via: CDex 1.51
#
DISCID=b90a4c0e
DTITLE=Blind Willie Johnson - Praise God I'm Satisfied
DYEAR=1900
DGENRE=Blues
TTITLE0=Jesus Make Up My Dying Bed
TTITLE1=Dark Was The Night---Cold Was The Ground
TTITLE2=Praise God I'm Satisfied
TTITLE3=Bye And Bye I'm Goin' To See The King
TTITLE4=You're Gonna Need Somebody On Your Bond
TTITLE5=When The War Was On
TTITLE6=God Moves On The Water
TTITLE7=I Know His Blood Can Make Me Whole
TTITLE8=God Don't Never Change
TTITLE9=The Rain Don't Fall On Me
TTITLE10=Nobody's Fault But Mine
TTITLE11=Keep Your Lamp Trimmed And Burning
TTITLE12=Jesus Is Coming Soon
TTITLE13=Mother's Children Have A Hard Time
EXTD=
EXTT0=
EXTT1=
EXTT2=
EXTT3=
EXTT4=
EXTT5=
EXTT6=
EXTT7=
EXTT8=
EXTT9=
EXTT10=
EXTT11=
EXTT12=
EXTT13=
PLAYORDER=
